<mxfile host="app.diagrams.net" modified="2024-02-06T07:52:09.005Z" agent="Mozilla/5.0 (Windows NT 10.0; Win64; x64) AppleWebKit/537.36 (KHTML, like Gecko) Chrome/121.0.0.0 Safari/537.36" version="23.1.1" etag="gwRt2wO2OP0Rjq7gZmp7" type="github">
  <diagram name="Page-1" id="Ob-Pg_t8knq1bYiQuv8o">
    <mxGraphModel>
      <root>
        <mxCell id="0" />
        <mxCell id="1" parent="0" />
      </root>
    </mxGraphModel>
  </diagram>
</mxfile>
